#!OML:ASF H:\LiuWeirdWalks\Patient Classification 1\Patient 1\Session 1\male.ASF
:FULLY-SPECIFIED
:DEGREES
3287
root 1.1435 17.8857 -23.6215 7.15876 4.70153 12.1407
lowerback 14.5075 2.70107 1.31007
upperback 1.42545 4.75925 12.0213
thorax -7.64651 2.56913 11.5462
lowerneck -23.9698 1.39616 8.79527
upperneck 18.1216 1.46364 -11.1512
head 9.84903 -0.0351504 -5.21907
rclavicle 1.90833e-014 7.95139e-014
rhumerus -45.3007 -18.9516 -36.1584
rradius 40.8929
rwrist -21.5506
rhand -19.1573 -4.27899
rfingers 7.12502
rthumb 7.15332 -34.1381
lclavicle 1.90833e-014 7.95139e-014
lhumerus -46.8733 -11.2145 95.876
lradius 44.0862
lwrist -0.386981
lhand 1.62753 -4.83806
lfingers 7.12502
lthumb 27.1483 23.2293
rfemur -8.88723 -9.23179 -2.49974
rtibia 55.8856
rfoot 9.6028 -11.2925
rtoes 17.4711
lfemur -19.1352 5.68589 -36.2027
ltibia 16.3695
lfoot -1.47025 4.48865
ltoes -3.82997
3288
root 1.18786 17.8809 -23.4926 7.08266 4.50565 12.6516
lowerback 14.4743 2.68362 0.84402
upperback 1.46458 4.64214 11.8884
thorax -7.58539 2.52234 11.6982
lowerneck -23.9417 1.40022 8.783
upperneck 18.1379 1.48909 -11.2028
head 9.85336 -0.0297051 -5.23242
rclavicle -3.10104e-014 -6.99722e-014
rhumerus -45.4255 -19.2165 -36.2532
rradius 40.2476
rwrist -21.3305
rhand -19.2029 -4.57095
rfingers 7.12502
rthumb 7.10927 -34.4315
lclavicle -3.10104e-014 -6.99722e-014
lhumerus -46.7689 -11.4389 95.5802
lradius 44.8975
lwrist -0.11274
lhand 1.27975 -4.60312
lfingers 7.12502
lthumb 26.8156 23.5157
rfemur -10.4858 -9.46919 -3.40037
rtibia 58.4419
rfoot 12.4289 -10.7291
rtoes 22.8753
lfemur -18.3516 6.20818 -36.9124
ltibia 15.9567
lfoot -1.62 4.16637
ltoes -3.46904
3289
root 1.22913 17.889 -23.3629 6.99884 4.37473 13.197
lowerback 14.4794 2.64478 0.325273
upperback 1.487 4.49278 11.7423
thorax -7.55914 2.46246 11.8754
lowerneck -23.9574 1.43069 8.82897
upperneck 18.2092 1.54349 -11.3057
head 9.88939 -0.0137159 -5.27331
rclavicle 2.14687e-014 5.08889e-014
rhumerus -45.5707 -19.469 -36.3769
rradius 39.6319
rwrist -21.0009
rhand -19.1211 -4.75014
rfingers 7.12502
rthumb 7.18825 -34.6081
lclavicle 2.14687e-014 5.08889e-014
lhumerus -46.6899 -11.6737 95.2605
lradius 45.7953
lwrist 0.228063
lhand 1.0161 -4.22572
lfingers 7.12502
lthumb 26.5633 23.9315
rfemur -11.9967 -9.75488 -4.27938
rtibia 60.7966
rfoot 14.9417 -10.3533
rtoes 27.2678
lfemur -17.4815 6.70334 -37.6389
ltibia 15.4451
lfoot -1.74996 3.84028
ltoes -3.17155
3290
root 1.26444 17.8865 -23.2364 6.90498 4.3215 13.736
lowerback 14.5218 2.58056 -0.201474
upperback 1.49718 4.31245 11.5966
thorax -7.55943 2.3887 12.0666
lowerneck -23.9245 1.46619 8.89379
upperneck 18.2379 1.60239 -11.423
head 9.90259 0.00523666 -5.31958
rclavicle 1.03368e-014 3.49861e-014
rhumerus -45.7498 -19.6762 -36.5405
rradius 39.087
rwrist -20.6338
rhand -18.9014 -4.82103
rfingers 7.12502
rthumb 7.40035 -34.6716
lclavicle 1.03368e-014 3.49861e-014
lhumerus -46.6128 -11.8985 94.9088
lradius 46.7579
lwrist 0.652859
lhand 0.851485 -3.76482
lfingers 7.12502
lthumb 26.4057 24.4162
rfemur -13.4596 -10.1045 -5.09444
rtibia 63.0275
rfoot 16.8116 -10.1916
rtoes 30.3389
lfemur -16.5802 7.12514 -38.3235
ltibia 14.8814
lfoot -1.84463 3.5346
ltoes -2.92309
3291
root 1.29505 17.8841 -23.111 6.80617 4.3526 14.2414
lowerback 14.5945 2.48814 -0.713984
upperback 1.48349 4.1021 11.4661
thorax -7.59435 2.30217 12.2766
lowerneck -23.8263 1.49288 8.95178
upperneck 18.2261 1.65348 -11.5399
head 9.88889 0.0217977 -5.36295
rclavicle 7.23576e-014 1.01778e-013
rhumerus -45.9567 -19.8396 -36.7153
rradius 38.5767
rwrist -20.1973
rhand -18.5621 -4.7719
rfingers 7.12502
rthumb 7.7278 -34.6107
lclavicle 7.23576e-014 1.01778e-013
lhumerus -46.5526 -12.0987 94.5415
lradius 47.7345
lwrist 1.06121
lhand 0.686252 -3.32789
lfingers 7.12502
lthumb 26.2475 24.8768
rfemur -14.8394 -10.5415 -5.80748
rtibia 65.0966
rfoot 17.9119 -10.2745
rtoes 32.2276
lfemur -15.6508 7.43516 -38.931
ltibia 14.2968
lfoot -1.93394 3.2819
ltoes -2.74565
3292
root 1.32173 17.8813 -22.9867 6.7133 4.44583 14.682
lowerback 14.675 2.37935 -1.17265
upperback 1.46259 3.88062 11.3581
thorax -7.63459 2.20955 12.4847
lowerneck -23.7227 1.49686 8.96308
upperneck 18.2237 1.67995 -11.6125
head 9.87372 0.0289467 -5.38585
rclavicle 8.74653e-015 1.59028e-014
rhumerus -46.1772 -20.0044 -36.888
rradius 38.0862
rwrist -19.6851
rhand -18.1452 -4.62283
rfingers 7.12502
rthumb 8.13017 -34.4464
lclavicle 8.74653e-015 1.59028e-014
lhumerus -46.4544 -12.2664 94.1488
lradius 48.6792
lwrist 1.42285
lhand 0.489084 -3.04697
lfingers 7.12502
lthumb 26.0587 25.1856
rfemur -16.1676 -11.0525 -6.3811
rtibia 67.0209
rfoot 18.1842 -10.5258
rtoes 33.0943
lfemur -14.8181 7.60644 -39.43
ltibia 13.9032
lfoot -2.10306 3.14693
ltoes -2.61123
3293
root 1.34489 17.8786 -22.8637 6.64526 4.59252 15.0283
lowerback 14.7472 2.25926 -1.55048
upperback 1.42829 3.65993 11.2829
thorax -7.67985 2.11629 12.6838
lowerneck -23.5922 1.49494 8.96461
upperneck 18.1908 1.69821 -11.6717
head 9.84172 0.0339095 -5.40161
rclavicle 1.11319e-014 -1.27222e-014
rhumerus -46.418 -20.1568 -37.0526
rradius 37.6147
rwrist -19.1271
rhand -17.6641 -4.37795
rfingers 7.12502
rthumb 8.59446 -34.183
lclavicle 1.11319e-014 -1.27222e-014
lhumerus -46.3008 -12.4092 93.7427
lradius 49.5412
lwrist 1.70323
lhand 0.169351 -3.00999
lfingers 7.12502
lthumb 25.7526 25.2674
rfemur -17.47 -11.6309 -6.77942
rtibia 68.7638
rfoot 17.6327 -10.9166
rtoes 33.2991
lfemur -14.072 7.63071 -39.7969
ltibia 13.6276
lfoot -2.31022 3.12662
ltoes -2.52783
3294
root 1.36587 17.8759 -22.7411 6.60856 4.76006 15.2691
lowerback 14.7779 2.13669 -1.82882
upperback 1.39136 3.45272 11.2426
thorax -7.70231 2.0264 12.8604
lowerneck -23.4846 1.44904 8.87349
upperneck 18.1906 1.67091 -11.6583
head 9.81834 0.0188405 -5.38315
rclavicle 3.02153e-014 4.77083e-014
rhumerus -46.6762 -20.2862 -37.2149
rradius 37.1707
rwrist -18.5541
rhand -17.1529 -4.08051
rfingers 7.12502
rthumb 9.08778 -33.8647
lclavicle 3.02153e-014 4.77083e-014
lhumerus -46.0738 -12.5197 93.3246
lradius 50.3039
lwrist 1.90955
lhand -0.249012 -3.19468
lfingers 7.12502
lthumb 25.3518 25.1401
rfemur -18.7666 -12.2319 -6.99607
rtibia 70.2979
rfoot 16.367 -11.4059
rtoes 33.5039
lfemur -13.443 7.53347 -40.0327
ltibia 13.5029
lfoot -2.57265 3.22594
ltoes -2.51177
3295
root 1.38539 17.8736 -22.6187 6.60276 4.9326 15.4224
lowerback 14.774 2.0205 -2.0219
upperback 1.34535 3.26929 11.2285
thorax -7.7164 1.94588 13.0101
lowerneck -23.4118 1.4036 8.77921
upperneck 18.2452 1.64313 -11.6301
head 9.82022 0.0041075 -5.36151
rclavicle 4.77083e-015 2.8625e-014
rhumerus -46.9717 -20.4046 -37.3508
rradius 36.737
rwrist -17.96
rhand -16.6307 -3.77652
rfingers 7.12502
rthumb 9.59163 -33.5382
lclavicle 4.77083e-015 2.8625e-014
lhumerus -45.7787 -12.6141 92.9054
lradius 50.9531
lwrist 2.07285
lhand -0.791631 -3.52866
lfingers 7.12502
lthumb 24.8319 24.8789
rfemur -20.074 -12.8293 -7.05745
rtibia 71.5913
rfoot 14.6739 -11.8485
rtoes 33.9348
lfemur -12.9278 7.35204 -40.1685
ltibia 13.5194
lfoot -2.88717 3.42393
ltoes -2.5723
3296
root 1.40373 17.8715 -22.496 6.61312 5.09286 15.5074
lowerback 14.7356 1.91653 -2.14669
upperback 1.30432 3.11291 11.2325
thorax -7.70872 1.87549 13.132
lowerneck -23.4201 1.36559 8.72181
upperneck 18.3237 1.61606 -11.634
head 9.84589 -0.0135442 -5.36044
rclavicle 1.35174e-014 5.40694e-014
rhumerus -47.2958 -20.5009 -37.4829
rradius 36.3276
rwrist -17.3941
rhand -16.1375 -3.54873
rfingers 7.12502
rthumb 10.0675 -33.2879
lclavicle 1.35174e-014 5.40694e-014
lhumerus -45.4083 -12.6802 92.4792
lradius 51.5244
lwrist 2.26795
lhand -1.35172 -3.84668
lfingers 7.12502
lthumb 24.295 24.6338
rfemur -21.3779 -13.3825 -6.99887
rtibia 72.6185
rfoot 12.7223 -12.2949
rtoes 34.7047
lfemur -12.496 7.12852 -40.2285
ltibia 13.6482
lfoot -3.24451 3.6984
ltoes -2.73428
3297
root 1.42125 17.8699 -22.3729 6.62974 5.23351 15.5498
lowerback 14.6751 1.82419 -2.22106
upperback 1.27235 2.9791 11.2436
thorax -7.68124 1.81316 13.2244
lowerneck -23.4991 1.34799 8.68714
upperneck 18.4325 1.60936 -11.6489
head 9.89777 -0.0232264 -5.36691
rclavicle -1.98785e-014 0
rhumerus -47.6303 -20.6092 -37.5994
rradius 35.9054
rwrist -16.8154
rhand -15.6528 -3.36253
rfingers 7.12502
rthumb 10.5351 -33.0785
lclavicle -1.98785e-014 0
lhumerus -44.9712 -12.709 92.0395
lradius 52.0254
lwrist 2.48793
lhand -1.91919 -4.11913
lfingers 7.12502
lthumb 23.7509 24.4331
rfemur -22.6764 -13.8775 -6.85577
rtibia 73.3663
rfoot 10.7562 -12.7207
rtoes 35.6809
lfemur -12.1113 6.90274 -40.2435
ltibia 13.8412
lfoot -3.62098 4.01491
ltoes -2.96069
3298
root 1.43765 17.868 -22.2492 6.63997 5.34531 15.5715
lowerback 14.6068 1.74129 -2.27957
upperback 1.25055 2.85963 11.2599
thorax -7.64089 1.75635 13.309
lowerneck -23.581 1.34966 8.68501
upperneck 18.5048 1.62232 -11.6931
head 9.94033 -0.0248827 -5.38556
rclavicle -2.38542e-014 -4.13472e-014
rhumerus -47.9647 -20.686 -37.7162
rradius 35.48
rwrist -16.2176
rhand -15.1725 -3.23625
rfingers 7.12502
rthumb 10.9984 -32.9281
lclavicle -2.38542e-014 -4.13472e-014
lhumerus -44.4981 -12.666 91.5843
lradius 52.4897
lwrist 2.73057
lhand -2.46232 -4.32733
lfingers 7.12502
lthumb 23.2299 24.2916
rfemur -23.9487 -14.2985 -6.66292
rtibia 73.8373
rfoot 8.8472 -13.1359
rtoes 36.7256
lfemur -11.7459 6.69332 -40.2347
ltibia 14.0697
lfoot -4.00102 4.3618
ltoes -3.21947
3299
root 1.45305 17.8657 -22.1248 6.64651 5.43077 15.5867
lowerback 14.5431 1.67166 -2.33623
upperback 1.22244 2.7587 11.2736
thorax -7.61417 1.70929 13.3851
lowerneck -23.5905 1.35475 8.71438
upperneck 18.5011 1.63454 -11.7625
head 9.94333 -0.0255574 -5.41458
rclavicle -7.95139e-016 -3.49861e-014
rhumerus -48.3198 -20.7492 -37.8166
rradius 35.0425
rwrist -15.6218
rhand -14.7289 -3.17727
rfingers 7.12502
rthumb 11.4262 -32.8459
lclavicle -7.95139e-016 -3.49861e-014
lhumerus -44.0361 -12.5803 91.1252
lradius 52.9403
lwrist 2.98183
lhand -2.98391 -4.47782
lfingers 7.12502
lthumb 22.7294 24.2034
rfemur -25.1918 -14.6628 -6.4392
rtibia 74.0459
rfoot 7.05668 -13.5041
rtoes 37.6886
lfemur -11.394 6.50902 -40.218
ltibia 14.3216
lfoot -4.38427 4.71456
ltoes -3.46893
3300
root 1.46718 17.8625 -21.9994 6.64516 5.48969 15.5906
lowerback 14.4861 1.61226 -2.38927
upperback 1.19843 2.6718 11.2865
thorax -7.58975 1.66884 13.4545
lowerneck -23.5595 1.3481 8.72572
upperneck 18.4371 1.63037 -11.8125
head 9.91535 -0.0317243 -5.43245
rclavicle -2.06736e-014 -9.54166e-014
rhumerus -48.6687 -20.8273 -37.9012
rradius 34.5802
rwrist -15.0014
rhand -14.3168 -3.15607
rfingers 7.12502
rthumb 11.8237 -32.8023
lclavicle -2.06736e-014 -9.54166e-014
lhumerus -43.583 -12.442 90.6555
lradius 53.4038
lwrist 3.23223
lhand -3.48188 -4.56686
lfingers 7.12502
lthumb 22.2514 24.1722
rfemur -26.3908 -14.9609 -6.17948
rtibia 74.0068
rfoot 5.3385 -13.8422
rtoes 38.3059
lfemur -11.0609 6.35114 -40.1845
ltibia 14.6155
lfoot -4.77539 5.08063
ltoes -3.6773
3301
root 1.47986 17.8579 -21.874 6.64944 5.54828 15.5932
lowerback 14.436 1.55539 -2.44644
upperback 1.16902 2.58844 11.2999
thorax -7.57616 1.63102 13.5266
lowerneck -23.5218 1.3402 8.71607
upperneck 18.3986 1.62648 -11.8297
head 9.89465 -0.0352656 -5.43542
rclavicle 2.78299e-014 7.95139e-014
rhumerus -49.0144 -20.9186 -37.9594
rradius 34.097
rwrist -14.333
rhand -13.9059 -3.12972
rfingers 7.12502
rthumb 12.2198 -32.7528
lclavicle 2.78299e-014 7.95139e-014
lhumerus -43.1412 -12.2624 90.1868
lradius 53.8869
lwrist 3.5008
lhand -3.94245 -4.57981
lfingers 7.12502
lthumb 21.8092 24.2113
rfemur -27.5478 -15.2254 -5.89611
rtibia 73.7458
rfoot 3.65765 -14.1346
rtoes 38.4444
lfemur -10.7951 6.20198 -40.1448
ltibia 15.0308
lfoot -5.2111 5.44831
ltoes -3.86239
